<?xml version="1.0" standalone="no"?>
<!DOCTYPE svg PUBLIC "-//W3C//DTD SVG 20010904//EN"
 "http://www.w3.org/TR/2001/REC-SVG-20010904/DTD/svg10.dtd">
<svg version="1.0" xmlns="http://www.w3.org/2000/svg"
 width="342.000000pt" height="320.000000pt" viewBox="0 0 342.000000 320.000000"
 preserveAspectRatio="xMidYMid meet">

<g transform="translate(0.000000,320.000000) scale(0.100000,-0.100000)"
fill="#000000" stroke="none">
<path d="M1345 3189 c-208 -46 -364 -107 -483 -187 -88 -60 -224 -193 -298
-291 -73 -98 -176 -293 -201 -381 l-16 -60 -32 20 c-54 33 -106 36 -168 7 -60
-27 -89 -62 -106 -124 -22 -81 -5 -113 155 -296 l144 -166 5 -293 c10 -521 30
-620 164 -846 138 -232 332 -411 571 -526 l85 -41 546 -3 547 -2 84 30 c117
42 217 104 323 197 205 182 341 404 403 658 14 59 17 127 17 449 l0 378 140
169 c77 93 146 186 153 207 41 115 -51 242 -177 242 -43 0 -108 -27 -131 -55
-11 -14 -17 -4 -44 77 -76 228 -255 464 -466 615 -150 107 -261 160 -445 209
-87 23 -102 24 -410 23 -176 -1 -338 -5 -360 -10z m675 -93 c382 -63 724 -329
876 -681 17 -38 41 -107 54 -152 l23 -81 -76 -94 c-42 -51 -92 -111 -110 -132
l-34 -40 -6 75 c-29 340 -228 633 -531 779 -139 67 -217 81 -489 87 -337 8
-439 -13 -623 -126 -189 -117 -364 -350 -364 -486 0 -24 -4 -55 -10 -69 -5
-14 -21 -83 -36 -153 -25 -120 -26 -145 -26 -403 0 -400 20 -573 84 -730 88
-213 256 -391 461 -489 79 -38 226 -81 274 -81 15 0 47 -22 87 -59 137 -128
206 -129 331 -4 55 55 66 61 115 68 137 18 294 89 411 184 173 139 256 289
328 586 9 37 9 35 5 -20 -3 -51 -2 -55 6 -25 5 19 12 70 16 113 6 68 5 77 -10
77 -25 0 -12 38 25 73 55 51 149 34 185 -34 18 -37 19 -178 0 -286 -59 -332
-262 -631 -529 -777 -71 -39 -67 -32 17 28 107 77 147 118 56 58 -201 -133
-378 -183 -655 -187 -72 -1 -126 3 -134 9 -11 8 -13 8 -7 -1 10 -17 -16 -17
-84 1 -30 8 -58 12 -62 10 -4 -3 -5 2 -2 11 5 11 2 14 -10 9 -9 -3 -29 -2 -44
4 -15 5 -54 16 -87 23 -33 7 -67 18 -76 26 -9 8 -20 13 -25 12 -5 -2 -36 6
-69 15 -55 17 -81 27 -200 82 -22 10 -47 18 -57 18 -9 1 -20 5 -25 10 -5 5 -2
6 7 2 8 -4 7 -1 -3 7 -13 11 -27 13 -48 7 -17 -5 -31 -5 -34 1 -4 5 2 9 12 9
15 0 16 2 3 10 -9 6 -17 5 -21 -2 -13 -21 -131 89 -164 151 -8 17 -19 31 -24
31 -5 0 -12 7 -15 16 -3 8 -2 13 3 10 5 -4 4 5 -2 19 -7 14 -15 25 -18 25 -3
0 -4 14 -1 30 2 18 -2 40 -12 55 -9 13 -16 37 -16 53 0 16 -11 46 -25 66 -14
20 -25 43 -25 51 0 8 -4 15 -10 15 -5 0 -10 6 -10 14 0 8 -8 17 -17 20 -15 6
-15 8 -3 16 12 8 12 10 -3 16 -9 3 -17 14 -17 24 0 16 -14 56 -40 115 -24 56
-31 104 -41 270 -5 99 -14 250 -20 335 -28 411 -11 551 96 775 143 300 436
532 755 599 109 23 112 23 385 24 174 1 276 -2 335 -12z m204 -596 c126 -63
217 -178 245 -308 16 -76 14 -384 -3 -448 -34 -128 -115 -229 -214 -266 l-47
-18 25 20 25 21 -40 -16 c-28 -12 -71 -16 -145 -16 -58 0 -112 -2 -121 -5 -28
-8 -17 -58 21 -101 19 -21 80 -87 135 -148 54 -60 142 -157 195 -215 195 -213
189 -204 190 -271 0 -32 -6 -54 -21 -73 -22 -28 -45 -36 -36 -12 4 11 -5 14
-44 12 -49 -1 -51 0 -112 64 -49 51 -193 209 -262 286 -5 6 -42 45 -80 85 -39
41 -88 94 -109 119 -22 25 -74 83 -117 130 -121 134 -159 183 -159 207 0 12
-7 23 -15 25 -23 5 9 60 48 84 29 17 57 20 272 24 273 6 296 11 343 83 26 39
27 47 30 192 4 171 -4 218 -48 263 -61 64 -49 62 -497 60 l-408 -3 0 -505 c0
-391 3 -510 13 -527 24 -43 -5 -23 -59 40 -29 34 -56 64 -59 67 -7 7 -102 120
-119 143 -7 9 -9 17 -4 17 5 0 54 -52 108 -115 54 -63 100 -113 103 -110 4 4
-40 69 -57 85 -4 3 -35 38 -70 79 l-65 74 -8 136 c-4 75 -13 152 -19 172 -7
23 -12 134 -13 295 -1 289 1 300 70 358 67 56 68 56 584 53 l475 -2 69 -35z
m-1936 -269 c20 -11 44 -30 52 -43 32 -52 49 -161 33 -218 -7 -24 -8 -23 -14
10 -5 30 -7 27 -9 -25 -4 -79 -4 -74 3 -120 l6 -40 -59 64 c-158 169 -179 203
-181 295 0 26 49 75 86 85 43 13 42 13 83 -8z m2967 -3 c15 -12 34 -36 41 -54
30 -72 18 -102 -105 -249 -61 -72 -559 -676 -704 -852 -39 -47 -64 -70 -72
-65 -22 13 -153 157 -157 173 -3 14 46 75 378 478 66 80 196 238 288 351 93
113 180 213 195 222 37 25 102 23 136 -4z m-2346 -708 c57 -67 199 -231 315
-365 116 -133 275 -317 354 -409 79 -91 149 -166 156 -166 8 0 63 61 123 135
59 74 115 134 123 134 14 1 170 -162 170 -177 0 -5 -209 -261 -311 -379 -24
-29 -44 -31 -29 -3 10 19 9 20 -17 13 -57 -15 -86 -8 -120 32 -40 46 -41 53
-8 60 14 3 36 7 49 10 21 4 24 10 21 40 -3 31 0 35 21 35 20 0 23 4 20 29 -2
23 0 28 13 24 9 -4 13 -3 9 2 -4 4 -3 14 3 22 9 9 8 13 0 13 -18 0 -26 -4 -24
-12 2 -5 -18 -8 -44 -8 -25 0 -43 3 -40 7 4 3 -14 31 -40 62 -70 83 -153 166
-153 154 0 -6 6 -14 13 -16 6 -3 -8 -4 -33 -2 -25 2 -51 -1 -59 -8 -12 -9 -13
-9 -7 1 4 7 2 12 -5 12 -7 0 -9 -8 -6 -21 5 -17 3 -18 -10 -8 -20 17 -57 23
-47 8 4 -8 0 -8 -15 0 -11 7 -21 14 -21 17 0 3 5 2 12 -2 7 -4 8 -3 4 4 -4 7
-13 12 -19 12 -15 0 -144 139 -246 264 -40 50 -79 94 -85 98 -6 4 -7 8 -1 8 5
0 -1 11 -15 24 -14 12 -40 41 -58 63 -18 22 -50 59 -72 81 -34 37 -39 49 -44
104 -10 129 -24 244 -31 268 -7 24 -6 24 22 -6 15 -18 75 -87 132 -154z m714
-105 c16 -16 61 -66 100 -110 40 -43 104 -113 143 -155 39 -41 106 -115 149
-165 44 -49 104 -117 135 -150 31 -33 80 -86 109 -117 30 -32 69 -63 87 -70
41 -14 44 -28 7 -28 -19 0 -42 16 -82 58 -48 49 -341 369 -496 541 -27 31 -75
83 -106 116 -89 96 -129 147 -129 164 0 10 11 2 28 -19 15 -19 40 -48 55 -65z
m444 28 c-20 -2 -52 -2 -70 0 -17 2 0 4 38 4 39 0 53 -2 32 -4z m-1127 -298
c89 -102 167 -191 174 -198 6 -6 59 -68 116 -137 255 -305 449 -518 482 -530
29 -12 31 -14 11 -17 -32 -6 -48 7 -168 147 -59 69 -133 154 -164 189 -232
265 -621 717 -621 724 0 4 2 7 4 7 2 0 77 -83 166 -185z m-209 -645 c181 -206
401 -342 634 -390 31 -6 54 -14 52 -17 -7 -7 -106 15 -181 39 -204 66 -415
218 -541 389 -26 35 -51 73 -56 84 -6 13 -3 11 8 -5 10 -14 48 -59 84 -100z
m989 -74 c0 -2 -7 -6 -15 -10 -8 -3 -15 -1 -15 4 0 6 7 10 15 10 8 0 15 -2 15
-4z"/>
<path d="M1647 153 c-13 -12 -7 -23 11 -22 10 0 12 3 4 6 -6 2 -10 9 -6 14 6
10 0 12 -9 2z"/>
<path d="M260 1936 c0 -2 8 -10 18 -17 15 -13 16 -12 3 4 -13 16 -21 21 -21
13z"/>
<path d="M2321 1133 c31 -32 66 -69 79 -83 12 -14 21 -20 19 -13 -5 15 -136
153 -145 153 -5 0 17 -26 47 -57z"/>
<path d="M1826 613 c-6 -14 -5 -15 5 -6 7 7 10 15 7 18 -3 3 -9 -2 -12 -12z"/>
<path d="M1790 590 c0 -5 5 -10 10 -10 6 0 10 5 10 10 0 6 -4 10 -10 10 -5 0
-10 -4 -10 -10z"/>
</g>
</svg>
